<?xml version="1.0" encoding="utf-8"?>
<!-- Generator: Adobe Illustrator 21.0.0, SVG Export Plug-In . SVG Version: 6.00 Build 0)  -->
<svg version="1.1" id="Layer_1" xmlns="http://www.w3.org/2000/svg" xmlns:xlink="http://www.w3.org/1999/xlink" x="0px" y="0px"
	 viewBox="0 0 121.7 73.1" style="enable-background:new 0 0 121.7 73.1;" xml:space="preserve">
<style type="text/css">
	.st0{fill:#E3E3E3;}
	.st1{fill:url(#SVGID_1_);}
</style>
<g>
	<rect x="40.3" y="3.8" class="st0" width="8.1" height="49"/>
	<rect x="52.8" y="3.8" class="st0" width="8.1" height="49"/>
	<linearGradient id="SVGID_1_" gradientUnits="userSpaceOnUse" x1="64.0313" y1="36.3952" x2="98.3595" y2="36.3952">
		<stop  offset="0" style="stop-color:#CB004B"/>
		<stop  offset="0.3603" style="stop-color:#E30613"/>
		<stop  offset="1" style="stop-color:#F18A00"/>
	</linearGradient>
	<path class="st1" d="M93.5,24.1c-3.2-3.2-7.5-4.9-12.3-4.9c-4.8,0-9.1,1.7-12.3,4.9c-3.1,3.2-4.9,7.5-4.9,12.3
		c0,4.8,1.7,9.2,4.9,12.3c3.1,3.2,7.5,4.9,12.3,4.9c4.8,0,9.2-1.7,12.3-4.9c3.2-3.2,4.9-7.5,4.9-12.3S96.6,27.2,93.5,24.1z
		 M81.2,45.9c-5.2,0-8.9-4-8.9-9.5c0-5.5,3.7-9.5,8.9-9.5c5.2,0,8.9,4,8.9,9.5C90.1,41.9,86.3,45.9,81.2,45.9z"/>
	<path class="st0" d="M36.6,52.8l0-16.9c0-4.6-1.7-8.9-4.9-11.9c-3.2-3.1-7.5-4.8-12.3-4.8c-4.8,0-9.1,1.7-12.3,4.8
		C4,27.1,2.3,31.3,2.3,35.9c0,4.6,1.7,8.9,4.9,11.9c3.1,3.1,7.5,4.8,12.3,4.8c3.2,0,6.2-0.8,8.8-2.2l0.5-0.3v2.6H36.6z M19.5,45.2
		c-5.2,0-8.9-3.9-8.9-9.2c0-5.4,3.7-9.2,8.9-9.2c5.2,0,8.9,3.9,8.9,9.2C28.4,41.3,24.6,45.2,19.5,45.2z"/>
	<polygon class="st0" points="117.7,20.4 110.9,20.4 110.9,3.8 103,3.8 103,20.4 99.7,20.4 99.7,27.8 103,27.8 103,52.8 110.9,52.8 
		110.9,27.8 117.7,27.8 	"/>
</g>
</svg>
